<!DOCTYPE svg PUBLIC "-//W3C//DTD SVG 20010904//EN" "http://www.w3.org/TR/2001/REC-SVG-20010904/DTD/svg10.dtd">
<svg version="1.0" xmlns="http://www.w3.org/2000/svg" width="266px" height="261px" viewBox="0 0 2660 2610" preserveAspectRatio="xMidYMid meet">
<g id="layer1" fill="#9993df" stroke="none">
 <path d="M1225 2475 c-305 -47 -523 -159 -728 -375 -124 -129 -184 -225 -261 -414 -41 -99 -75 -286 -75 -406 0 -171 52 -388 132 -547 111 -218 317 -422 542 -535 392 -198 902 -155 1244 103 101 76 250 232 307 321 88 137 145 276 173 428 23 123 21 359 -3 475 -54 249 -188 478 -378 645 -198 175 -404 269 -668 305 -122 17 -175 17 -285 0z m295 -55 c99 -13 167 -27 224 -46 66 -21 228 -101 242 -119 6 -8 22 -18 35 -23 44 -17 146 -101 206 -170 84 -96 129 -163 184 -272 56 -114 82 -196 109 -354 22 -132 24 -178 11 -257 -5 -30 -15 -85 -22 -124 -34 -199 -151 -429 -292 -573 -199 -204 -429 -318 -712 -354 -105 -13 -135 -14 -230 -4 -176 19 -290 52 -437 127 -350 180 -570 505 -618 914 -15 122 -15 95 4 250 19 150 60 285 119 395 53 98 117 190 132 190 7 0 16 11 19 24 13 52 213 214 351 283 113 57 280 109 375 116 91 7 237 6 300 -3z"/>
 <path d="M517 1673 c-21 -20 13 -82 147 -263 23 -30 55 -77 72 -104 l32 -49 -47 -66 c-25 -36 -54 -77 -64 -91 -10 -14 -42 -61 -72 -105 -31 -44 -62 -89 -70 -101 -17 -24 -10 -54 12 -54 17 0 139 32 228 60 33 11 123 35 200 55 155 40 402 108 482 133 29 9 56 12 60 8 4 -4 9 -51 10 -104 1 -54 2 -105 2 -114 1 -28 52 -22 102 12 24 16 49 30 54 30 6 0 35 17 67 38 31 20 104 64 163 97 59 33 123 70 143 82 21 12 71 40 112 61 67 35 75 42 75 68 0 26 -8 34 -72 69 -40 22 -103 59 -140 81 -38 23 -93 54 -123 70 -30 15 -69 38 -85 50 -17 13 -50 32 -75 44 -25 11 -76 39 -114 60 -73 42 -90 47 -102 29 -3 -6 -7 -62 -8 -124 0 -62 -4 -116 -7 -120 -4 -3 -45 5 -90 18 -46 14 -106 30 -134 37 -27 7 -70 18 -95 26 -25 7 -106 30 -180 49 -167 44 -238 65 -268 76 -13 5 -35 9 -50 9 -15 0 -51 9 -80 20 -55 21 -75 24 -85 13z m1088 -73 c24 -16 47 -30 52 -30 4 0 35 -18 68 -40 33 -22 64 -40 69 -40 5 0 32 -15 60 -34 28 -18 83 -50 121 -71 106 -56 195 -109 195 -115 -1 -7 -91 -67 -115 -76 -11 -4 -27 -12 -35 -19 -13 -11 -40 -26 -175 -100 -22 -12 -58 -34 -79 -48 -21 -15 -43 -27 -48 -27 -5 0 -33 -15 -61 -33 -79 -49 -98 -59 -105 -52 -4 4 -8 54 -8 112 -1 63 -6 109 -13 116 -9 9 -32 6 -94 -10 -315 -85 -385 -104 -487 -133 -217 -61 -364 -100 -368 -96 -3 4 68 112 160 241 70 98 74 110 55 148 -9 17 -32 53 -51 79 -78 108 -166 237 -166 243 0 11 37 2 280 -68 124 -35 279 -79 345 -97 66 -18 158 -43 205 -56 46 -13 92 -24 102 -24 26 0 36 35 30 107 -4 61 4 153 14 153 3 0 25 -13 49 -30z"/>
 </g>
<g id="layer2" fill="#7c76e4" stroke="none">
 <path d="M1240 2464 c-104 -10 -267 -59 -396 -120 -211 -99 -434 -322 -541 -539 -94 -192 -143 -442 -122 -621 42 -365 189 -633 466 -850 207 -163 455 -247 728 -247 351 0 657 140 901 413 211 236 327 608 285 908 -7 48 -28 140 -47 205 -59 204 -144 347 -299 503 -146 147 -334 258 -515 304 -47 12 -99 25 -116 31 -34 10 -275 19 -344 13z m-575 -854 c44 -12 94 -25 110 -30 17 -4 82 -22 145 -39 63 -17 149 -40 190 -51 41 -12 107 -30 145 -40 142 -37 221 -59 236 -65 9 -3 24 1 33 10 13 13 16 38 16 131 0 63 3 114 7 114 7 0 163 -87 278 -155 64 -38 149 -87 303 -172 31 -17 57 -37 57 -44 0 -11 -59 -47 -325 -198 -69 -39 -167 -96 -219 -126 -52 -30 -95 -55 -97 -55 -2 0 -4 49 -4 109 0 144 -9 154 -110 121 -14 -4 -54 -16 -90 -25 -36 -10 -101 -28 -145 -40 -44 -13 -143 -39 -220 -60 -77 -21 -162 -44 -190 -52 -82 -24 -230 -62 -232 -59 -2 2 60 95 185 275 34 50 62 95 62 102 0 7 -46 78 -103 158 -56 80 -113 163 -126 185 -22 35 -22 38 -5 32 10 -3 55 -15 99 -26z"/>
 </g>

</svg>