<!DOCTYPE svg PUBLIC "-//W3C//DTD SVG 20010904//EN" "http://www.w3.org/TR/2001/REC-SVG-20010904/DTD/svg10.dtd">
<svg version="1.0" xmlns="http://www.w3.org/2000/svg" width="266px" height="261px" viewBox="0 0 2660 2610" preserveAspectRatio="xMidYMid meet">
<g id="layer1" fill="#837bd9" stroke="none">
 <path d="M1225 2464 c-441 -66 -807 -350 -965 -750 -63 -157 -74 -222 -75 -429 0 -126 5 -209 13 -245 64 -263 172 -453 357 -628 184 -175 399 -280 648 -316 201 -30 379 -12 579 59 231 83 457 263 593 474 214 333 253 729 107 1091 -147 365 -476 641 -865 726 -70 16 -329 27 -392 18z m340 -52 c39 -6 83 -15 98 -21 16 -6 38 -11 49 -11 37 0 205 -83 278 -137 25 -18 59 -40 75 -47 28 -14 37 -21 83 -72 11 -12 23 -23 28 -25 20 -9 134 -143 134 -158 0 -9 16 -31 35 -50 19 -19 35 -37 35 -41 0 -5 18 -46 39 -92 22 -45 47 -108 55 -138 8 -30 19 -68 25 -83 33 -84 31 -358 -3 -507 -26 -113 -50 -190 -68 -220 -4 -8 -20 -39 -34 -67 -14 -29 -30 -55 -35 -58 -5 -4 -19 -24 -30 -47 -31 -60 -101 -146 -124 -149 -11 -2 -21 -12 -23 -21 -7 -37 -97 -108 -136 -108 -9 0 -22 -13 -31 -30 -9 -16 -22 -30 -29 -30 -7 0 -24 -8 -37 -19 -13 -10 -58 -33 -99 -50 -41 -18 -84 -36 -95 -41 -49 -22 -231 -57 -348 -66 -40 -3 -106 -1 -147 6 -41 6 -100 15 -130 19 -31 5 -80 20 -110 34 -30 14 -71 28 -91 31 -20 4 -53 20 -75 36 -21 16 -45 30 -52 30 -14 0 -105 60 -110 73 -2 4 -28 23 -57 43 -30 19 -78 63 -107 97 -29 34 -63 72 -76 84 -13 13 -29 38 -37 56 -8 19 -20 39 -28 46 -8 6 -18 24 -22 39 -3 15 -14 36 -24 47 -9 11 -27 47 -40 80 -12 33 -27 69 -33 80 -10 17 -9 18 4 7 12 -10 18 -9 28 2 16 21 2 39 -25 32 -21 -5 -23 -2 -28 42 -3 26 -10 83 -17 127 -12 80 -9 185 9 340 5 44 10 83 10 86 1 4 9 6 19 5 14 -1 17 7 14 52 -3 41 1 58 17 78 12 15 21 34 21 43 0 10 11 32 25 51 14 19 25 39 25 45 0 7 14 31 30 53 17 23 30 46 30 52 0 6 26 38 58 73 41 45 63 61 79 59 28 -3 41 18 20 33 -19 14 -17 16 53 65 155 109 285 180 328 180 12 0 35 9 50 20 63 45 359 68 547 42z"/>
 <path d="M1095 2360 c-4 -6 -3 -16 3 -22 6 -6 12 -6 17 2 4 6 3 16 -3 22 -6 6 -12 6 -17 -2z"/>
 <path d="M745 2201 c-7 -12 12 -24 25 -16 11 7 4 25 -10 25 -5 0 -11 -4 -15 -9z"/>
 <path d="M2345 1800 c-4 -6 -3 -16 3 -22 6 -6 12 -6 17 2 4 6 3 16 -3 22 -6 6 -12 6 -17 -2z"/>
 <path d="M1596 1721 c-3 -5 1 -14 8 -20 16 -13 32 2 21 19 -8 12 -22 13 -29 1z"/>
 <path d="M506 1686 l-29 -24 52 -68 c28 -38 77 -107 108 -154 31 -47 66 -97 78 -112 13 -15 26 -43 29 -62 6 -31 2 -42 -24 -75 -18 -22 -41 -42 -52 -44 -14 -4 -19 -11 -15 -22 4 -9 -6 -30 -26 -53 -19 -20 -50 -66 -70 -102 -21 -36 -43 -73 -49 -82 -10 -13 -9 -21 5 -36 17 -19 21 -19 65 -5 26 8 63 16 82 19 19 3 62 13 95 23 149 46 201 61 213 61 7 0 42 9 78 21 36 12 91 27 122 34 94 22 205 52 234 64 15 6 35 8 43 5 8 -4 22 -1 30 6 8 7 15 9 15 4 0 -5 3 -41 5 -81 3 -43 1 -74 -5 -78 -18 -11 -11 -41 15 -65 28 -26 29 -26 130 34 22 13 59 34 83 46 24 12 65 38 92 56 27 19 61 34 75 34 14 0 28 7 31 15 4 8 14 15 24 15 10 0 27 11 38 25 11 14 22 25 26 25 3 0 47 25 98 56 50 31 102 60 115 65 44 16 18 74 -47 103 -19 9 -48 25 -65 36 -16 11 -43 27 -60 35 -16 8 -26 14 -21 15 21 1 -18 29 -48 34 -19 4 -39 13 -46 21 -7 8 -20 15 -30 15 -10 0 -23 7 -30 15 -6 8 -21 17 -33 21 -12 4 -30 17 -40 30 -10 13 -27 24 -38 24 -25 0 -75 25 -112 56 -16 13 -34 24 -40 24 -6 0 -21 9 -33 21 -18 17 -26 19 -42 10 -12 -6 -30 -11 -42 -11 -31 0 -38 -30 -11 -51 20 -16 22 -25 19 -111 -2 -77 -6 -92 -18 -89 -8 2 -44 12 -80 22 -36 11 -130 37 -210 58 -80 21 -201 54 -270 73 -69 20 -160 44 -203 53 -43 10 -80 22 -83 27 -3 4 -13 8 -23 8 -10 0 -26 9 -36 20 -23 25 -33 25 -69 -4z m1199 -131 c55 -32 185 -107 290 -167 104 -60 193 -112 197 -116 4 -4 -72 -53 -170 -109 -97 -55 -244 -139 -326 -187 -82 -47 -150 -86 -152 -86 -2 0 -4 54 -4 120 0 99 -3 122 -15 126 -15 6 -62 -5 -280 -65 -60 -17 -126 -35 -145 -40 -19 -6 -60 -17 -90 -26 -247 -70 -454 -125 -458 -121 -2 3 55 88 127 191 l131 186 -32 44 c-73 97 -230 326 -227 330 5 5 93 -18 334 -85 17 -5 46 -13 65 -18 19 -5 80 -22 135 -37 55 -14 138 -38 185 -51 154 -45 241 -66 256 -60 11 4 14 31 14 135 l0 130 33 -18 c17 -11 77 -45 132 -76z"/>
 <path d="M2393 1594 c-9 -23 11 -38 26 -20 13 16 7 36 -10 36 -5 0 -12 -7 -16 -16z"/>
 <path d="M535 1510 c-4 -6 -3 -16 3 -22 6 -6 12 -6 17 2 4 6 3 16 -3 22 -6 6 -12 6 -17 -2z"/>
 <path d="M2474 1466 c-4 -10 -2 -22 4 -28 8 -8 13 -7 18 6 4 10 2 22 -4 28 -8 8 -13 7 -18 -6z"/>
 <path d="M694 1236 c-4 -10 -2 -22 4 -28 8 -8 13 -7 18 6 4 10 2 22 -4 28 -8 8 -13 7 -18 -6z"/>
 <path d="M481 956 c-7 -8 -8 -17 -3 -20 6 -3 15 1 21 8 7 8 8 17 3 20 -6 3 -15 -1 -21 -8z"/>
 <path d="M1661 886 c-13 -15 -5 -26 20 -26 26 0 32 17 10 29 -14 8 -22 7 -30 -3z"/>
 <path d="M794 879 c-10 -17 13 -36 27 -22 12 12 4 33 -11 33 -5 0 -12 -5 -16 -11z"/>
 <path d="M405 740 c-11 -17 5 -32 21 -19 7 6 11 15 8 20 -7 12 -21 11 -29 -1z"/>
 </g>
<g id="layer2" fill="#ebebef" stroke="none">
 <path d="M0 1305 l0 -1305 1330 0 1330 0 0 1305 0 1305 -1330 0 -1330 0 0 -1305z m1617 1121 c547 -120 933 -595 933 -1149 0 -341 -163 -693 -417 -897 -194 -156 -358 -229 -598 -266 -118 -18 -204 -17 -332 2 -243 36 -460 140 -637 305 -174 162 -285 360 -348 619 -8 36 -13 119 -13 245 1 207 12 272 75 429 156 393 507 664 945 730 63 9 322 -2 392 -18z"/>
 <path d="M1527 1663 c-4 -3 -7 -64 -7 -135 0 -70 -4 -128 -8 -128 -12 0 -138 33 -242 64 -47 13 -130 37 -185 51 -147 40 -150 41 -325 89 -170 48 -221 59 -231 49 -8 -8 106 -182 230 -350 l31 -42 -135 -192 c-91 -130 -132 -196 -125 -203 8 -8 264 53 390 94 22 7 78 23 180 50 19 6 85 24 145 40 222 62 250 70 263 70 9 0 12 -31 12 -120 0 -90 3 -122 13 -126 7 -2 53 19 103 47 49 28 195 112 324 186 248 142 270 157 255 172 -9 8 -110 67 -548 318 -142 81 -131 76 -140 66z"/>
 </g>
<g id="layer3" fill="#7d76e3" stroke="none">
 <path d="M1260 2439 c-159 -15 -260 -38 -260 -59 0 -5 -12 -10 -28 -10 -15 0 -56 -14 -92 -30 -80 -38 -56 -23 -265 -168 -33 -23 -71 -59 -85 -79 -13 -21 -46 -61 -72 -90 -26 -28 -48 -57 -48 -62 0 -6 -13 -30 -30 -53 -16 -22 -30 -46 -30 -53 0 -6 -11 -26 -25 -45 -14 -19 -25 -41 -25 -51 0 -9 -10 -28 -21 -43 -17 -21 -20 -36 -16 -67 3 -21 1 -37 -3 -34 -37 23 -72 -306 -50 -460 6 -44 15 -105 19 -136 5 -30 13 -64 19 -75 6 -10 21 -46 33 -79 13 -33 31 -69 40 -80 10 -11 21 -32 24 -47 4 -15 14 -33 22 -39 8 -7 20 -27 27 -44 18 -43 174 -214 228 -251 24 -16 44 -32 46 -36 6 -12 121 -88 134 -88 7 0 31 -14 52 -30 22 -16 55 -32 75 -36 20 -3 61 -17 91 -31 30 -14 79 -29 110 -34 30 -4 89 -13 130 -19 41 -7 107 -9 147 -6 117 9 299 44 348 66 11 5 58 25 105 45 47 20 92 42 100 49 8 7 27 17 43 24 15 6 27 18 27 26 0 8 21 24 46 35 47 21 124 89 124 110 0 6 6 11 13 11 16 0 109 116 137 169 11 22 24 42 29 46 5 3 21 29 35 58 14 28 30 59 34 67 18 30 42 107 68 220 34 149 36 423 3 507 -6 15 -17 53 -25 83 -8 30 -33 93 -55 138 -21 46 -39 87 -39 91 0 4 -15 24 -34 44 -19 21 -37 48 -40 61 -8 32 -215 241 -257 260 -19 9 -54 31 -79 49 -73 54 -241 137 -278 137 -11 0 -33 5 -49 11 -68 27 -270 41 -403 28z m-702 -761 c-2 -6 13 -16 32 -22 19 -6 40 -14 45 -17 6 -4 44 -14 85 -24 41 -10 131 -34 200 -53 69 -19 190 -52 270 -73 177 -47 281 -77 288 -83 2 -3 13 -1 23 5 17 8 19 22 19 115 0 97 -2 106 -20 111 -30 8 -24 17 18 30 33 10 39 9 58 -8 11 -10 25 -19 31 -19 6 0 24 -11 40 -24 37 -31 87 -56 111 -56 11 0 27 -11 36 -25 9 -14 23 -25 30 -25 7 0 25 -9 39 -20 14 -11 32 -20 40 -20 8 0 17 -6 20 -14 3 -7 22 -17 41 -20 20 -4 34 -11 31 -17 -4 -5 13 -18 37 -29 24 -11 57 -29 73 -40 17 -11 41 -25 55 -32 34 -16 60 -39 60 -52 0 -10 -178 -121 -221 -138 -10 -4 -23 -16 -29 -27 -6 -13 -21 -21 -36 -21 -13 0 -27 -7 -30 -15 -4 -8 -15 -15 -25 -15 -11 0 -42 -15 -69 -34 -27 -18 -68 -44 -92 -56 -24 -12 -61 -33 -83 -46 -90 -53 -103 -58 -120 -44 -17 14 -20 46 -5 55 13 8 3 176 -11 190 -7 7 -15 4 -24 -9 -8 -11 -21 -16 -30 -13 -8 4 -28 2 -43 -4 -29 -12 -140 -42 -234 -64 -31 -7 -86 -22 -122 -34 -36 -12 -71 -21 -78 -21 -12 0 -64 -15 -213 -61 -33 -10 -76 -20 -95 -23 -19 -3 -57 -11 -83 -20 -42 -13 -49 -13 -54 0 -3 8 1 22 10 32 8 9 29 44 47 77 18 33 46 74 61 90 15 17 29 36 31 43 2 7 25 36 51 65 44 47 48 55 42 87 -4 19 -17 51 -31 70 -13 19 -48 71 -79 115 -30 44 -77 110 -104 146 -46 61 -49 67 -33 82 19 20 43 23 40 5z"/>
 </g>

</svg>